<svg xmlns="http://www.w3.org/2000/svg" xmlns:xlink="http://www.w3.org/1999/xlink" viewBox="0 0 300 48" class="iconLeft" width="500" height="80"><defs><linearGradient xlink:href="#a" id="c" gradientTransform="scale(1.4606 .68465)" x1="0" y1="49.66" x2="87.636" y2="49.66" gradientUnits="userSpaceOnUse"/><linearGradient gradientTransform="rotate(25)" id="b" x1="0" y1="0" x2="1" y2="0"><stop offset="0%" stop-color="#41E296"/><stop offset="100%" stop-color="#00C4EE"/></linearGradient><linearGradient xlink:href="#a" id="d" gradientUnits="userSpaceOnUse" gradientTransform="matrix(1.4606 0 0 .68465 -123.512 0)" x1="0" y1="49.66" x2="87.636" y2="49.66"/></defs><defs><linearGradient gradientTransform="rotate(25)" id="a" x1="0" y1="0" x2="1" y2="0"><stop offset="0%" stop-color="#41E296"/><stop offset="100%" stop-color="#00C4EE"/></linearGradient></defs><path d="M-117.51 42v5.713h61.16V42zm-4.923.317v36.66h1.69v-36.66zm10.911 7.248v5.714h40.275v-5.714zm36.85 7.567v5.714h34.01v-5.714zm16.885 8.01v5.713h31.137v-5.714zm13.701 8.143v5.712h31.137v-5.712z" fill="url(#d)" transform="matrix(.83313 0 0 .82705 110.569 -26.35)"/><g aria-label="Dash Plan" style="line-height:1.25;-inkscape-font-specification:'FreeSans, Normal';font-variant-ligatures:normal;font-variant-caps:normal;font-variant-numeric:normal;font-feature-settings:normal;text-align:start" font-weight="400" font-size="26.474" font-family="FreeSans" letter-spacing="0" word-spacing="0" fill="#08403f" stroke-width=".662"><path d="M111.838 38.987V8.34h11.813q5.844 0 9.165 4.078 3.322 4.078 3.322 11.225 0 7.147-3.364 11.267-3.32 4.078-9.123 4.078zm3.91-3.447h7.23q4.541 0 6.896-3.027 2.354-3.027 2.354-8.829 0-5.843-2.354-8.87-2.355-3.027-6.895-3.027h-7.231zM140.047 23.474q.253-7.147 8.83-7.147 4.077 0 6.18 1.556 2.101 1.513 2.101 4.456v12.949q0 1.723 1.892 1.723.378 0 .757-.084v2.65q-1.472.377-2.397.377-1.681 0-2.564-.798-.84-.757-1.051-2.439-3.532 3.237-7.483 3.237-3.322 0-5.298-1.765-1.933-1.766-1.933-4.75 0-.968.168-1.767.21-.798.42-1.387.252-.63.84-1.135.59-.547.968-.883.42-.336 1.345-.63.967-.337 1.472-.463.504-.168 1.765-.378 1.262-.21 1.85-.295.589-.084 2.102-.294 2.06-.252 2.859-.799.799-.546.799-1.64v-.924q0-1.598-1.303-2.439-1.262-.84-3.616-.84-2.438 0-3.7.966-1.26.925-1.471 2.943zm7.021 13.411q2.901 0 4.751-1.513 1.85-1.556 1.85-3.321v-3.952q-1.051.504-3.195.84-2.102.337-3.658.59-1.555.251-2.817 1.218-1.26.925-1.26 2.607 0 1.682 1.134 2.606 1.135.925 3.195.925zM165.777 32.429q.252 1.976 1.345 3.153 1.135 1.135 4.036 1.135 2.312 0 3.7-.925 1.429-.967 1.429-2.522 0-1.22-.799-1.934-.799-.715-2.606-1.135l-3.28-.799q-3.91-.925-5.465-2.312-1.513-1.43-1.513-4.036 0-3.07 2.312-4.877 2.312-1.85 6.138-1.85t5.886 1.766q2.06 1.766 2.102 5.003h-3.7q-.126-3.532-4.414-3.532-2.144 0-3.406.925-1.26.883-1.26 2.397 0 1.177.966 1.934.967.714 3.111 1.219l3.363.799q3.28.798 4.751 2.27 1.471 1.43 1.471 3.868 0 3.195-2.48 5.087-2.438 1.891-6.6 1.891-8.535 0-8.787-7.525zM197.896 23.727q0-2.313-1.43-3.322-1.387-1.009-3.11-1.009-2.691 0-4.33 2.06-1.64 2.018-1.64 5.382v12.15h-3.49V8.338h3.49v11.646q1.555-2.018 3.11-2.817 1.598-.84 3.953-.84 3.195 0 5.044 1.639 1.892 1.597 1.892 4.372v16.648h-3.49zM239.895 17.336q0 3.91-2.397 6.306-2.354 2.355-6.18 2.355h-9.627v12.99h-3.91V8.34h12.655q4.54 0 6.978 2.355 2.48 2.312 2.48 6.642zM221.69 22.55h8.156q2.817 0 4.372-1.429 1.598-1.43 1.598-3.952 0-2.522-1.598-3.952-1.555-1.43-4.372-1.43h-8.156zM248.05 8.34v30.647h-3.53V8.34zM253.222 23.474q.252-7.147 8.828-7.147 4.078 0 6.18 1.556 2.102 1.513 2.102 4.456v12.949q0 1.723 1.892 1.723.379 0 .757-.084v2.65q-1.471.377-2.396.377-1.682 0-2.565-.798-.84-.757-1.05-2.439-3.532 3.237-7.484 3.237-3.321 0-5.297-1.765-1.934-1.766-1.934-4.75 0-.968.168-1.767.21-.798.42-1.387.253-.63.841-1.135.589-.547.967-.883.42-.336 1.345-.63.967-.337 1.472-.463.504-.168 1.766-.378 1.26-.21 1.85-.295.588-.084 2.101-.294 2.06-.252 2.86-.799.798-.546.798-1.64v-.924q0-1.598-1.303-2.439-1.261-.84-3.616-.84-2.438 0-3.7.966-1.26.925-1.47 2.943zm7.02 13.411q2.901 0 4.751-1.513 1.85-1.556 1.85-3.321v-3.952q-1.051.504-3.195.84-2.102.337-3.658.59-1.555.251-2.816 1.218-1.262.925-1.262 2.607 0 1.682 1.135 2.606 1.136.925 3.196.925zM276.344 16.958h3.237v3.7q1.472-2.313 3.154-3.322 1.723-1.009 4.162-1.009 3.195 0 5.087 1.64 1.891 1.64 1.891 4.372v16.648h-3.489v-15.26q0-1.976-1.22-3.154-1.218-1.177-3.32-1.177-2.691 0-4.33 2.06-1.64 2.018-1.64 5.382v12.15h-3.532z" style="-inkscape-font-specification:'FreeSans, Normal';font-variant-ligatures:normal;font-variant-caps:normal;font-variant-numeric:normal;font-feature-settings:normal;text-align:start"/></g></svg>